<?xml version="1.0" ?><!DOCTYPE svg  PUBLIC '-//W3C//DTD SVG 1.1//EN'  'http://www.w3.org/Graphics/SVG/1.1/DTD/svg11.dtd'><svg enable-background="new 0 0 200 200" height="200px" id="Слой_1" version="1.1" viewBox="0 0 200 200" width="200px" xml:space="preserve" xmlns="http://www.w3.org/2000/svg" xmlns:xlink="http://www.w3.org/1999/xlink"><g><rect height="176.333" width="19" x="61.189" y="11.799"/><rect height="176.333" width="19" x="121.915" y="11.799"/><path d="M146.856,163.467c0-3.3-2.7-6-6-6H60.189c-3.3,0-6,2.7-6,6v5.333c0,3.3,2.7,6,6,6h80.667c3.3,0,6-2.7,6-6V163.467z"/><path d="M146.856,130.133c0-3.3-2.7-6-6-6H60.189c-3.3,0-6,2.7-6,6v5.333c0,3.3,2.7,6,6,6h80.667c3.3,0,6-2.7,6-6V130.133z"/><path d="M146.856,96.8c0-3.3-2.7-6-6-6H60.189c-3.3,0-6,2.7-6,6v5.333c0,3.3,2.7,6,6,6h80.667c3.3,0,6-2.7,6-6V96.8z"/><path d="M146.856,63.467c0-3.3-2.7-6-6-6H60.189c-3.3,0-6,2.7-6,6V68.8c0,3.3,2.7,6,6,6h80.667c3.3,0,6-2.7,6-6V63.467z"/><path d="M146.856,30.133c0-3.3-2.7-6-6-6H60.189c-3.3,0-6,2.7-6,6v5.333c0,3.3,2.7,6,6,6h80.667c3.3,0,6-2.7,6-6V30.133z"/></g></svg>